<svg xmlns="http://www.w3.org/2000/svg" xmlns:xlink="http://www.w3.org/1999/xlink" width="1920" zoomAndPan="magnify" viewBox="0 0 1440 809.999993" height="1080" preserveAspectRatio="xMidYMid meet" version="1.0"><rect x="-144" width="1728" fill="#ffffff" y="-80.999999" height="971.999992" fill-opacity="1"/><rect x="-144" width="1728" fill="#000000" y="-80.999999" height="971.999992" fill-opacity="1"/><path fill="#62d6da" d="M 35.054688 880.296875 C 33.234375 879.179688 39.882812 881.15625 39.058594 881.15625 C 40.476562 881.984375 36.261719 881.035156 35.054688 880.296875 Z M 319.859375 838.78125 C 319.859375 825.992188 302.175781 800.089844 293.433594 788.980469 C 277.953125 769.316406 274.8125 762.777344 274.855469 753.019531 C 274.945312 730.179688 294.550781 720.066406 287.476562 699.40625 C 286.402344 696.289062 286.414062 696.164062 288.238281 692.105469 C 296.417969 673.863281 289.007812 666.183594 281.886719 615.625 C 279.238281 596.753906 272.742188 573.984375 266.171875 560.480469 C 258.972656 545.703125 252.332031 541.1875 229.972656 535.84375 C 194.359375 527.324219 196.261719 511.082031 161.4375 505.851562 C 129.625 501.078125 137.382812 512.851562 129.378906 500.777344 C 121.332031 488.625 123.175781 477.492188 110.230469 465.050781 C 94.011719 449.457031 83.367188 454.832031 66.398438 462.492188 C 36.074219 476.183594 28.527344 472.441406 7.511719 479.191406 C 3.007812 480.644531 1.285156 481.089844 0 480.523438 L 0 486.355469 C 4.886719 486.871094 11.523438 483.664062 23.71875 481.160156 C 51.410156 475.492188 51.945312 475.324219 70.59375 466.882812 C 83.871094 460.859375 88.121094 459.796875 93.339844 461.171875 C 102.046875 463.453125 112.132812 471.667969 117.394531 488.191406 C 125.1875 512.613281 133.359375 506.578125 132.105469 525.738281 C 130.398438 552.109375 138.367188 562.078125 125.800781 587.925781 C 110.1875 620.027344 72.46875 652.132812 67.773438 659.835938 C 64.867188 664.597656 67.273438 670.890625 71.609375 669.863281 C 78.832031 668.152344 99.421875 652.914062 110.03125 641.414062 C 130.117188 619.625 133.078125 630.683594 128.675781 639.5 C 122.515625 651.863281 94.257812 667.828125 82.027344 670.96875 C 69.910156 674.078125 66.644531 670.566406 41.730469 668.945312 C 22.300781 667.695312 9.546875 666.128906 0 666.488281 L 0 672.386719 C 12.40625 671.953125 23.363281 673.339844 38.128906 674.289062 C 73.933594 676.570312 77.054688 684.359375 110.679688 663.335938 C 122.238281 656.113281 125.03125 653.84375 129.859375 647.761719 C 137.527344 638.117188 138.445312 629.765625 132.410156 624.679688 C 124.640625 618.140625 113.160156 630.132812 106.105469 637.289062 C 90.300781 653.308594 72.4375 665.613281 72.4375 662.597656 C 72.4375 658.316406 122.347656 618.976562 136.199219 577.886719 C 139.609375 567.757812 137.515625 514.234375 137.113281 513.164062 C 134.867188 507.25 167.417969 512.480469 166.132812 512.480469 C 193.96875 518.203125 193.242188 532.972656 227.058594 540.964844 C 253.90625 547.3125 259.976562 550.945312 270.382812 589.007812 C 278.632812 619.203125 275.246094 623.25 284.246094 661.613281 C 288.628906 680.3125 282.894531 690.261719 282.792969 690.261719 C 282.089844 690.261719 270.945312 676.625 256.65625 683.277344 C 230.992188 695.226562 230.433594 729.109375 222.832031 742.03125 C 219.253906 748.113281 210.511719 751.777344 199.757812 768.019531 C 176.6875 802.863281 170.503906 796.035156 123.445312 838.03125 C 110.039062 849.992188 103.144531 854.585938 95.429688 856.699219 C 90.054688 858.164062 75.554688 858.765625 68.433594 857.804688 C 50.550781 855.402344 47.375 851.546875 29.367188 851.433594 C 14.421875 851.34375 7.164062 856.632812 0 859.617188 L 0 865.273438 C 2.871094 864.480469 5.867188 863.304688 9.042969 861.707031 C 34.375 848.851562 46.445312 864.019531 80.058594 863.875 C 103.042969 863.773438 111.328125 856.453125 128.785156 840.9375 C 175.300781 799.597656 181.828125 806.484375 206.554688 767.953125 C 218.292969 749.652344 226.910156 756.304688 234.492188 726.347656 C 239.765625 705.476562 253.738281 679.65625 272.730469 689.4375 C 274.957031 690.585938 279.171875 694.902344 279.183594 696.042969 C 279.191406 697.796875 272.21875 705.914062 261.800781 716.265625 C 203.246094 774.460938 267.644531 758.363281 174.84375 823.789062 C 141.316406 847.410156 142.324219 872.996094 51.152344 882.109375 C 24.300781 861.875 17.179688 887.695312 45.753906 887.695312 C 48.738281 887.695312 49.039062 887.832031 52.707031 892.066406 L 60.0625 892.066406 C 59.75 891.6875 59.4375 891.308594 59.113281 890.9375 L 56.496094 887.953125 C 77.644531 883.347656 82.71875 885.898438 106.171875 878.027344 C 149.320312 863.5625 155.503906 843.878906 177.121094 829.078125 C 269.390625 765.875 212.335938 773.597656 264.472656 721.664062 C 277.203125 708.976562 279.429688 705.925781 282.378906 702.335938 C 284.078125 709.914062 284.414062 711.042969 276.84375 726.605469 C 257.628906 766.121094 276.277344 771.140625 300.164062 807.847656 C 307.6875 819.40625 314.550781 834.597656 314.507812 839.605469 C 314.472656 842.625 312.136719 846.714844 305.796875 854.855469 C 293.578125 870.539062 286.558594 884.199219 278.433594 892.066406 L 286.414062 892.066406 C 290.671875 887.027344 294.238281 881.222656 297.859375 875.757812 C 313.621094 851.949219 319.859375 849.265625 319.859375 838.78125 " fill-opacity="1" fill-rule="nonzero"/><path fill="#62d6da" d="M 14.429688 539.835938 C 19.171875 530.109375 13.292969 517.691406 0 511.910156 L 0 518.382812 C 5.613281 521.667969 9.703125 526.386719 10.183594 531.449219 C 10.664062 536.457031 7.007812 542.652344 0 547.078125 L 0 553.695312 C 6.226562 550.6875 11.347656 546.148438 14.429688 539.835938 " fill-opacity="1" fill-rule="nonzero"/><path fill="#62d6da" d="M 83.871094 804.058594 C 109.234375 798.371094 123.601562 801.859375 147.96875 789.605469 C 163.808594 781.648438 185.125 763.960938 185.125 757.03125 C 185.125 748.613281 167.074219 751.164062 147.453125 764.921875 C 127.34375 779.042969 122.648438 774.636719 119.800781 750.996094 C 115.808594 717.816406 124.417969 706.304688 119.441406 700.425781 C 117.207031 697.773438 113.851562 696.300781 110.109375 696.300781 C 107.535156 696.300781 106.039062 696.878906 101.535156 699.640625 C 78.628906 713.671875 34.296875 710.015625 0 712.652344 L 0 718.210938 C 24.605469 716.734375 67.082031 717.425781 90.410156 710.941406 C 107.144531 706.292969 107.324219 697.707031 115.820312 704.617188 C 112.632812 722.902344 110.914062 763.839844 121.746094 774.941406 C 133.066406 786.53125 150.214844 767.941406 162.769531 762.273438 C 168.046875 759.894531 175.992188 757.511719 177.828125 757.769531 C 181.816406 758.339844 154.921875 784.320312 129.480469 790.957031 C 97.542969 799.296875 101.722656 787.972656 26.382812 817.765625 C 13.089844 823.019531 5.109375 827.535156 0 831.035156 L 0 838.152344 C 2.773438 835.839844 6.113281 833.214844 10.5625 830.730469 C 20.578125 825.140625 69.964844 807.179688 83.871094 804.058594 " fill-opacity="1" fill-rule="nonzero"/><path fill="#62d6da" d="M 95.753906 565.632812 C 95.753906 551.539062 78.707031 546.886719 65.761719 543.65625 C 51.265625 540.035156 44.535156 539.128906 38.140625 526.945312 C 30.671875 512.714844 16.242188 502.6875 0 497.757812 L 0 503.804688 C 14.183594 508.378906 26.785156 517.074219 32.910156 529.238281 C 44.949219 553.136719 70.390625 545.679688 84.566406 556.5 C 92.3125 562.414062 91.382812 569.109375 85.011719 575.472656 C 76.484375 584.011719 57.324219 591.121094 34.710938 594.152344 C 19.761719 596.140625 8.429688 600.554688 0 605.195312 L 0 611.824219 C 9.667969 605.945312 20.925781 601.808594 36.933594 599.570312 C 71.988281 594.675781 95.753906 580.960938 95.753906 565.632812 " fill-opacity="1" fill-rule="nonzero"/><path fill="#62d6da" d="M 261.285156 179.832031 C 281.394531 180.269531 303.976562 181.507812 321.617188 192.195312 C 337.289062 201.699219 348.464844 222.398438 337.859375 239.636719 C 332.738281 247.964844 324.21875 253.644531 315.992188 258.550781 C 307.015625 263.882812 297.703125 268.679688 288.167969 272.925781 C 268.449219 281.679688 247.625 287.984375 226.386719 291.773438 C 206.53125 295.328125 186.601562 295.484375 166.535156 296.714844 C 148.71875 297.796875 130.003906 300.144531 114.5 309.691406 C 85.570312 327.511719 79.96875 365.839844 94.671875 394.851562 C 110.800781 426.730469 149.300781 440.414062 183.226562 437.84375 C 203.863281 436.277344 223.109375 428.394531 242.964844 423.242188 C 261.273438 418.492188 280.054688 416.601562 297.425781 425.523438 C 311.164062 432.578125 323.101562 446.09375 319.917969 462.523438 C 316.808594 478.507812 304.457031 491.410156 302.378906 507.640625 C 301.503906 514.460938 303.429688 521.097656 308.324219 526.027344 C 313.589844 531.328125 321.066406 533.148438 328.164062 534.402344 C 335.050781 535.609375 343.035156 536.132812 348.902344 540.328125 C 357.578125 546.519531 356.046875 558.859375 354.523438 568.027344 C 348.265625 605.820312 324.085938 639.601562 324.0625 678.605469 C 324.042969 697.695312 331.238281 715.15625 341.960938 730.683594 C 353.171875 746.902344 367.335938 760.777344 378.925781 776.695312 C 390.800781 792.980469 401.226562 812.53125 399.382812 833.3125 C 397.707031 852.136719 384.917969 867.25 375.417969 882.746094 C 373.550781 885.796875 371.828125 888.902344 370.285156 892.066406 L 376.902344 892.066406 C 384.316406 878.363281 394.566406 866.277344 400.636719 851.824219 C 408.023438 834.253906 406.191406 815.683594 398.667969 798.46875 C 390.753906 780.359375 377.84375 765.371094 365.15625 750.46875 C 352.847656 736.015625 340.125 720.835938 333.945312 702.59375 C 321.234375 665.132812 342.953125 628.234375 354.246094 593.414062 C 357.175781 584.390625 359.566406 575.203125 360.839844 565.800781 C 362.015625 557.183594 362.496094 547.492188 357.050781 540.101562 C 347.929688 527.707031 330.714844 531.238281 318.140625 525.582031 C 301.046875 517.890625 310.402344 499.347656 316.394531 487.328125 C 323.15625 473.734375 330.066406 459.148438 323.785156 444.035156 C 318.0625 430.21875 304.566406 420.90625 290.761719 416.3125 C 273.167969 410.453125 254.699219 413.753906 237.261719 418.605469 C 217.855469 424.003906 198.785156 431.503906 178.417969 432.140625 C 160.65625 432.699219 142.515625 428.910156 127.078125 419.933594 C 112.199219 411.28125 100.707031 397.992188 95.644531 381.425781 C 90.992188 366.164062 91.484375 348.773438 98.984375 334.476562 C 116.769531 300.546875 161.058594 303.1875 193.667969 301.453125 C 234.882812 299.273438 275.402344 287.851562 311.578125 267.941406 C 326.46875 259.746094 344.351562 249.183594 347.527344 230.90625 C 350.445312 214.105469 340.449219 197.628906 326.859375 188.484375 C 310.683594 177.585938 290.070312 175.359375 271.089844 174.253906 C 250.84375 173.089844 230.535156 174.265625 210.480469 177.25 C 169.746094 183.308594 130.484375 197.160156 93.429688 214.867188 C 60.753906 230.46875 30.238281 249.5625 0 269.28125 L 0 276.378906 C 7.367188 271.519531 14.722656 266.675781 22.132812 261.914062 C 93.183594 216.171875 175 177.953125 261.285156 179.832031 " fill-opacity="1" fill-rule="nonzero"/><path fill="#62d6da" d="M 94.671875 179.261719 C 127.667969 154.859375 144.984375 120.308594 154.296875 80.546875 C 172.820312 1.503906 173.144531 -15.65625 130.398438 -90.53125 C 124.898438 -100.164062 119.242188 -109.722656 114.523438 -119.773438 C 110.800781 -127.675781 105.347656 -135.792969 103.691406 -144.445312 C 102.808594 -149.128906 102.84375 -153.921875 102.875 -158.671875 C 102.910156 -163 102.953125 -167.394531 104.316406 -171.496094 C 106.285156 -177.421875 106.777344 -183.222656 107.871094 -189.4375 C 108.96875 -195.617188 108.363281 -201.644531 105.660156 -207.34375 C 100.75 -217.695312 89.839844 -224.738281 78.898438 -227.164062 C 65.160156 -230.226562 51.039062 -225.914062 38.753906 -219.84375 C 25.777344 -213.4375 13.28125 -203.914062 0 -197.027344 L 0 -190.375 C 5.421875 -193.015625 10.664062 -196.078125 15.761719 -199.25 C 37.214844 -212.585938 65.652344 -232.765625 90.636719 -215.652344 C 94.996094 -212.65625 98.804688 -208.496094 100.851562 -203.578125 C 103.421875 -197.441406 102.472656 -191.101562 100.605469 -184.910156 C 97.152344 -173.429688 96.191406 -162.898438 96.4375 -150.882812 C 96.480469 -148.636719 96.539062 -146.378906 97.074219 -144.199219 C 97.476562 -142.53125 98.167969 -140.957031 98.851562 -139.378906 C 106.921875 -120.867188 116.546875 -103.195312 126.640625 -85.65625 C 160.710938 -26.445312 167.597656 -2.207031 153.515625 58.925781 C 142.613281 106.222656 139.71875 114.171875 124.082031 139.535156 C 91.082031 193.035156 32.765625 202.492188 12.285156 208.707031 C 7.578125 210.136719 3.566406 211.320312 0 212.292969 L 0 218.21875 C 3.34375 217.335938 6.941406 216.285156 10.945312 215.03125 C 42.199219 205.285156 57.535156 206.738281 94.671875 179.261719 " fill-opacity="1" fill-rule="nonzero"/><path fill="#62d6da" d="M 117.84375 34.34375 C 117.003906 25.078125 113.59375 3.703125 110.621094 -10.917969 C 92.894531 -98.332031 68.804688 -107.265625 15.101562 -116.117188 C 9.804688 -116.988281 4.785156 -117.90625 0 -118.84375 L 0 -112.929688 C 59.28125 -101.964844 85.605469 -105.710938 105.234375 -8.949219 C 113.105469 29.894531 117.308594 57.09375 104.082031 92.761719 C 94.355469 119.019531 67.40625 153.617188 36.242188 169.960938 C 16.53125 180.289062 10.160156 180.4375 0 180.613281 L 0 186.269531 C 11 185.992188 17.964844 185.96875 37.078125 175.976562 C 75.175781 156.066406 124.058594 102.855469 117.84375 34.34375 " fill-opacity="1" fill-rule="nonzero"/><path fill="#62d6da" d="M 1404.507812 828.238281 C 1396.109375 819.898438 1393.316406 818.367188 1378.515625 813.976562 C 1364.832031 809.90625 1367.003906 811.226562 1354.851562 799.242188 C 1337.671875 782.273438 1330.851562 783.199219 1313.914062 764.902344 C 1305.421875 755.734375 1300.992188 758.585938 1271.738281 750 C 1247.449219 742.878906 1233.664062 747.640625 1223.324219 737.378906 C 1204.378906 718.542969 1241.167969 691.90625 1252.769531 644.777344 C 1259.375 617.972656 1260.125 597.324219 1255.183594 578.019531 C 1251.539062 563.789062 1235.757812 543.421875 1224.097656 537.902344 C 1208.535156 530.535156 1192.550781 533.585938 1182.167969 543.410156 C 1171.558594 553.4375 1169.9375 565.835938 1145.890625 577.015625 C 1119.277344 589.386719 1112.503906 588.773438 1100.40625 649.796875 C 1096.761719 668.230469 1089.777344 698.8125 1097.445312 714.339844 C 1105.023438 729.667969 1130.332031 737.222656 1142.335938 748.03125 C 1159.910156 763.863281 1143.019531 794.914062 1181.027344 808.09375 C 1193.007812 812.242188 1204.085938 811.839844 1238.125 805.992188 C 1279.664062 798.863281 1293.113281 797.820312 1332.976562 816.703125 C 1385.546875 841.621094 1401.566406 873.410156 1430.84375 865.273438 L 1430.84375 859.617188 C 1424.90625 862.085938 1419.027344 862.96875 1408.875 857.882812 C 1389.292969 848.058594 1368.78125 826.046875 1326.300781 807.402344 C 1254.445312 775.867188 1203.238281 826.261719 1168.507812 794 C 1163.285156 789.148438 1160.75 784.09375 1158.980469 774.941406 C 1154.398438 751.253906 1156.234375 747.519531 1120.742188 727.789062 C 1094.996094 713.480469 1095.710938 701.921875 1106.445312 648.65625 C 1114.984375 606.222656 1120.25 595.300781 1135.597656 588.125 C 1157.898438 577.695312 1160.546875 576.199219 1167.300781 570.21875 C 1174.957031 563.441406 1182.882812 547.75 1192.328125 542.917969 C 1200.523438 538.726562 1212.269531 538.359375 1219.390625 542.058594 C 1220.476562 542.617188 1224.21875 545.257812 1227.71875 547.917969 C 1256.691406 570.015625 1255.855469 608.089844 1247.113281 643.515625 C 1238.09375 680.066406 1220.308594 693.683594 1214.015625 715.671875 C 1208.882812 733.625 1216.675781 748.613281 1245.75 750.972656 C 1264.886719 752.515625 1262.730469 754.28125 1291.804688 761.035156 C 1305.890625 764.296875 1305.667969 764.140625 1310.910156 769.921875 C 1326.210938 786.824219 1334.941406 787.515625 1351.488281 803.902344 C 1363.671875 815.976562 1362.328125 814.96875 1377.410156 819.632812 C 1392.175781 824.191406 1392.367188 824.125 1401.699219 833.371094 C 1418.589844 850.09375 1421.5625 845.878906 1430.84375 838.152344 L 1430.84375 831.035156 C 1423.453125 836.085938 1422.054688 839.035156 1419.304688 839.035156 C 1416.511719 839.035156 1412.1875 835.875 1404.507812 828.238281 " fill-opacity="1" fill-rule="nonzero"/><path fill="#62d6da" d="M 1339.703125 840.054688 C 1339.078125 830.484375 1333.859375 823.992188 1322.300781 818.367188 C 1293.929688 804.585938 1262.460938 810.128906 1229.429688 812.042969 C 1115.765625 818.625 1121.144531 871.992188 1147.121094 892.066406 L 1158.222656 892.066406 C 1157.628906 891.800781 1157.039062 891.542969 1156.433594 891.261719 C 1140.15625 883.515625 1119.488281 852.863281 1163.363281 830.53125 C 1187.609375 818.199219 1238.191406 817.460938 1258.136719 815.71875 C 1282.101562 813.628906 1292.195312 815.773438 1292.128906 815.773438 C 1306.316406 817.519531 1332.683594 824.179688 1334.046875 839.796875 C 1335.132812 852.25 1306.851562 866.414062 1297.59375 892.066406 L 1303.652344 892.066406 C 1307.21875 884.242188 1314.171875 874.773438 1326.191406 862.410156 C 1338.976562 849.265625 1340.164062 847.296875 1339.703125 840.054688 " fill-opacity="1" fill-rule="nonzero"/><path fill="#62d6da" d="M 1404.753906 653.507812 C 1401.554688 653.964844 1400.214844 647.328125 1402.246094 641.15625 C 1403.367188 637.792969 1406.539062 632.269531 1407.355469 632.269531 C 1408.964844 632.269531 1410.867188 652.613281 1404.753906 653.507812 Z M 1302.222656 732.238281 C 1299.195312 734.753906 1297.382812 717.078125 1306.972656 696.109375 C 1310.046875 689.390625 1310.171875 689.882812 1309.210938 704.941406 C 1309.277344 704.941406 1308.035156 727.441406 1302.222656 732.238281 Z M 1021.789062 598.085938 C 1023.320312 603.6875 1024.425781 608.390625 1024.25 608.570312 C 1023.589844 609.230469 1011.984375 607.496094 1009.382812 606.347656 C 1000.226562 602.332031 999.589844 588.875 988.296875 583.230469 C 985.941406 582.042969 983.457031 580.492188 982.855469 579.796875 C 978.71875 575.082031 978.585938 544.617188 988.050781 523.769531 C 992.871094 513.164062 1005.34375 493.0625 1009.066406 489.910156 C 1011.808594 487.585938 1012.96875 488.324219 1015.953125 494.292969 C 1018.960938 500.296875 1018.917969 499.839844 1016.3125 506.042969 C 1008.578125 524.496094 1017.351562 547.984375 1017.316406 547.90625 C 1016.960938 578.8125 1016.335938 578.066406 1021.789062 598.085938 Z M 1091.578125 449.1875 C 1094.683594 446.257812 1099.289062 445.074219 1097.332031 448.875 C 1098.753906 448.875 1085.742188 459.875 1085.742188 457.640625 C 1085.742188 456.589844 1089.484375 451.179688 1091.578125 449.1875 Z M 1409.582031 620.195312 C 1408.386719 619 1398.726562 594.105469 1383.792969 586.550781 C 1368.132812 578.625 1342.320312 576.542969 1337.433594 559.722656 C 1334.742188 550.398438 1340.753906 538.390625 1338.285156 534.636719 C 1334.585938 528.980469 1331.878906 535.171875 1313.792969 547.390625 C 1299.292969 557.183594 1286.839844 568.050781 1294.589844 583.609375 C 1298.636719 591.726562 1305.722656 597.292969 1325.988281 608.292969 C 1339.324219 615.523438 1341.28125 618.921875 1338.777344 630.492188 C 1335.34375 646.296875 1315.503906 670.050781 1315.3125 670.128906 C 1313.546875 670.789062 1315.859375 663.054688 1304.144531 638.429688 C 1288.441406 605.40625 1270.597656 595.949219 1261.398438 558.835938 C 1253.664062 527.605469 1249.125 535.945312 1239.476562 516.582031 C 1227.773438 493.097656 1218.507812 491.699219 1171.234375 506.289062 C 1142.839844 515.0625 1135.128906 516.628906 1125.636719 515.554688 C 1090.101562 511.542969 1081.226562 471.632812 1083.40625 466.023438 C 1084.03125 464.402344 1098.941406 458.199219 1102.742188 450.777344 C 1107.820312 440.882812 1091.261719 433.347656 1080.867188 454.777344 L 1078.6875 459.292969 C 1062.871094 464.480469 1038.355469 471.511719 1022.472656 494.484375 C 1019.933594 489.375 1016.960938 482.859375 1011.226562 482.859375 C 1001.890625 482.859375 984.117188 517.722656 980.6875 526.308594 C 976.5625 536.636719 973.824219 555.273438 974.480469 568.550781 C 975.0625 580.109375 977.140625 583.957031 984.988281 587.925781 C 998.460938 594.753906 993.808594 611.128906 1015.933594 613.589844 C 1023.847656 614.472656 1028.988281 616.921875 1030.050781 612.574219 C 1031.90625 605.050781 1021.933594 590.605469 1022.738281 561.441406 C 1023.5 533.460938 1017.039062 539.789062 1018.859375 520.910156 C 1019.730469 511.910156 1020.546875 510.523438 1021.195312 508.648438 C 1026.617188 524.765625 1028.136719 530.378906 1042.347656 541.277344 C 1060.355469 555.082031 1073.300781 584.347656 1075.167969 594.976562 C 1077.925781 610.726562 1065.09375 641.378906 1051.746094 650.882812 C 1048.988281 652.847656 1049.109375 652.589844 1055.882812 642.496094 C 1064.589844 629.519531 1065.867188 624.132812 1064.457031 606.347656 C 1063.652344 596.253906 1062.949219 593.984375 1059.953125 591.625 C 1049.007812 583.0625 1047.21875 612.28125 1034.789062 633.914062 C 1034.410156 632.269531 1033.402344 627.238281 1032.363281 625.976562 C 1030.988281 624.308594 1027.355469 624.019531 1025.007812 625.394531 C 1022.90625 626.625 1019.039062 631.789062 1019.039062 633.34375 C 1019.039062 633.855469 1018.769531 634.238281 1018.402344 634.238281 C 1017.40625 634.238281 1007.445312 625.851562 1005.816406 623.628906 C 1000.851562 616.910156 992.457031 616.363281 990.992188 614.605469 C 989.707031 613.054688 987.089844 613.332031 986.285156 615.121094 C 985.191406 617.511719 987.851562 629.542969 990.8125 635.632812 C 1000.023438 654.613281 1026.136719 661.601562 1029.648438 666.0625 C 1033.726562 671.257812 1025.734375 710.027344 1041.238281 733.007812 C 1062.1875 764.0625 1113.644531 773.710938 1113.910156 839.742188 C 1113.988281 860.53125 1101.144531 871.03125 1109.496094 892.066406 L 1115.429688 892.066406 C 1106.589844 872.730469 1120.382812 859.941406 1119.511719 837.382812 C 1117.019531 772.78125 1071.289062 760.910156 1049.589844 734.785156 C 1040.019531 723.273438 1037.027344 711.289062 1036.613281 683.019531 C 1036.320312 661.9375 1036.320312 661.9375 1021.957031 655.273438 C 1009.738281 649.59375 996.480469 639.5 993.328125 626.109375 C 992.089844 620.84375 991.886719 621.449219 995.339844 622.644531 C 1000.503906 624.421875 1012.277344 640.621094 1019.230469 640.140625 C 1021.933594 639.960938 1022.078125 639.824219 1024.148438 635.699219 C 1029.625 624.757812 1027.960938 636.25 1030.988281 639.894531 C 1034.285156 643.839844 1041.261719 636.90625 1044.660156 626.300781 C 1045.308594 624.253906 1047.109375 619.625 1048.671875 615.9375 C 1055.882812 598.921875 1056.824219 586.796875 1058.765625 607.050781 C 1060.421875 624.21875 1059.316406 627.753906 1046.394531 646.5 C 1042.289062 652.46875 1041.789062 657.242188 1045.085938 658.996094 C 1051.9375 662.664062 1078.898438 638.273438 1080.8125 602.535156 C 1081.894531 582.445312 1062.714844 549.75 1047.9375 538.550781 C 1032.421875 526.777344 1031.324219 521.523438 1024.886719 500.898438 C 1031.28125 491.511719 1041.429688 482.769531 1046.226562 479.425781 C 1056.878906 472.003906 1075.367188 466.144531 1076.71875 466.144531 C 1078.910156 466.144531 1076.386719 490.144531 1096.09375 508.144531 C 1119.992188 529.964844 1146.304688 519.824219 1170.417969 512.445312 C 1219.714844 497.367188 1224.128906 498.675781 1234.863281 520.148438 C 1242.808594 536.042969 1249.652344 533.71875 1254.492188 554.390625 C 1257.878906 568.863281 1259.621094 581.351562 1280.929688 611.050781 C 1297.652344 634.359375 1307.667969 656.359375 1309.511719 673.808594 C 1310.640625 684.605469 1294.921875 693.816406 1294.824219 723.328125 C 1294.800781 732.027344 1294.96875 733.613281 1296.109375 735.492188 C 1300.109375 742.085938 1307.019531 738.417969 1311.03125 727.554688 C 1314.765625 717.449219 1315.480469 692.164062 1316.140625 679.273438 C 1331.644531 656.984375 1346.121094 642.496094 1345.046875 622.097656 C 1343.996094 602.132812 1308.4375 600.289062 1299.082031 579.921875 C 1292.398438 565.386719 1314.476562 554.242188 1332.527344 540.851562 C 1326.347656 583.699219 1354.894531 578.210938 1381.253906 591.636719 C 1392.378906 597.304688 1400.3125 614.527344 1405.390625 624.957031 C 1400.066406 632.214844 1395.730469 638.070312 1395.628906 646.945312 C 1395.507812 656.972656 1403.332031 662.953125 1409.523438 657.542969 C 1419.886719 648.464844 1411.726562 626.15625 1411.871094 626.613281 C 1418.132812 620.855469 1424.101562 615.925781 1430.84375 611.824219 L 1430.84375 605.195312 C 1416.734375 612.964844 1410.753906 621.371094 1409.582031 620.195312 " fill-opacity="1" fill-rule="nonzero"/><path fill="#62d6da" d="M 1327.128906 759.558594 C 1341.402344 760.351562 1375.890625 727.988281 1417.328125 719.664062 C 1420.636719 718.992188 1425.285156 718.542969 1430.84375 718.210938 L 1430.84375 712.652344 C 1421.152344 713.390625 1412.265625 714.644531 1404.886719 716.945312 C 1356.28125 732.046875 1330.972656 763.214844 1322.300781 751.566406 C 1313.132812 739.234375 1340.242188 690.339844 1404.183594 676 C 1414.554688 673.675781 1422.996094 672.667969 1430.84375 672.386719 L 1430.84375 666.488281 C 1430.292969 666.519531 1429.746094 666.53125 1429.210938 666.574219 C 1329.242188 672.96875 1293.460938 757.691406 1327.128906 759.558594 " fill-opacity="1" fill-rule="nonzero"/><path fill="#62d6da" d="M 833.265625 749.765625 C 832.425781 740.5 829.015625 719.125 826.042969 704.503906 C 808.3125 617.089844 784.214844 608.15625 730.523438 599.304688 C 688.144531 592.328125 663.039062 582.269531 636.421875 583.699219 C 616.960938 584.75 613.707031 582.054688 611.171875 586.480469 C 606.667969 594.375 625.679688 611.109375 637.296875 645.269531 C 653.792969 693.773438 665.878906 687.679688 666.167969 726.324219 C 666.335938 749.285156 662.972656 763.636719 645.542969 814.332031 C 635.796875 842.679688 624.015625 865.058594 612.355469 877.355469 C 606.585938 883.4375 603.066406 888.355469 600.6875 892.066406 L 607.804688 892.066406 C 609.929688 889.0625 612.46875 885.742188 615.675781 882.230469 C 635.203125 860.878906 645.332031 832.363281 654.632812 805.234375 C 663.183594 780.292969 671.925781 755.433594 671.8125 726.59375 C 671.726562 704.390625 670.191406 700.011719 659.292969 680.480469 C 639.050781 644.195312 644.851562 637.800781 626.003906 608.113281 C 621.175781 600.523438 616.425781 591.667969 616.203125 589.890625 C 616.191406 589.824219 650.195312 586.570312 683.929688 595.527344 C 766.015625 617.300781 797.851562 594.050781 820.65625 706.472656 C 828.523438 745.316406 832.714844 772.515625 819.503906 808.183594 C 809.777344 834.441406 782.839844 869.039062 751.660156 885.382812 C 745.917969 888.390625 741.3125 890.535156 737.410156 892.066406 L 751.191406 892.066406 C 751.628906 891.84375 752.054688 891.632812 752.5 891.398438 C 790.597656 871.488281 839.480469 818.277344 833.265625 749.765625 " fill-opacity="1" fill-rule="nonzero"/><path fill="#62d6da" d="M 1394.175781 523.132812 C 1394.589844 521.480469 1397.0625 518.183594 1397.886719 518.183594 C 1398.378906 518.183594 1402.5625 521.925781 1402.503906 521.925781 C 1415.785156 534.265625 1391.71875 532.960938 1394.175781 523.132812 Z M 1313.089844 490.671875 C 1294.855469 522.886719 1271.796875 525.558594 1266.789062 521.355469 C 1259.019531 514.839844 1277.84375 487.664062 1311.691406 486.9375 C 1316.320312 486.835938 1315.804688 485.875 1313.089844 490.671875 Z M 1429.144531 479.113281 C 1422.960938 472.40625 1440.121094 433.058594 1392.5 431.804688 C 1359.792969 430.957031 1335.523438 453.59375 1318.433594 481.335938 C 1300.703125 482.074219 1285.691406 482.109375 1268.742188 499.191406 C 1238.820312 529.328125 1286.125 549.449219 1318.554688 492.707031 C 1321.851562 486.925781 1321.851562 486.925781 1329.476562 488.523438 C 1346.144531 492.046875 1367.347656 504.835938 1369.875 504.835938 C 1373.867188 504.835938 1356.316406 514.695312 1361.457031 532.535156 C 1367.71875 554.242188 1407.277344 565.085938 1430.84375 553.695312 L 1430.84375 547.078125 C 1424.996094 550.765625 1416.835938 553.226562 1406.71875 552.699219 C 1384.820312 551.5625 1358.605469 537.476562 1367.816406 518.5625 C 1369.515625 515.0625 1375.898438 508.199219 1377.441406 508.199219 C 1379.1875 508.199219 1392.554688 513.578125 1392.554688 514.558594 C 1392.554688 516.191406 1389.113281 516.863281 1388.6875 523.804688 C 1387.984375 535.082031 1403.902344 540.886719 1410.128906 533.484375 C 1418.199219 523.90625 1402.738281 516.738281 1405.007812 515.355469 C 1405.320312 515.164062 1407.492188 514.648438 1409.769531 514.246094 C 1416.878906 512.949219 1424.761719 514.828125 1430.84375 518.382812 L 1430.84375 511.910156 C 1422.660156 508.355469 1411.660156 507.316406 1398.59375 511.003906 C 1383.738281 503.671875 1382.472656 504.1875 1393.574219 501.625 C 1405.085938 498.976562 1418.570312 499.847656 1430.84375 503.804688 L 1430.84375 497.757812 C 1414.320312 492.75 1395.933594 493.042969 1381.121094 499.648438 L 1376.738281 501.605469 C 1359.109375 494.585938 1344.445312 485.148438 1329.667969 482.722656 C 1323.773438 481.75 1324.34375 482.175781 1329.957031 473.960938 C 1346.242188 450.117188 1375.8125 431.636719 1402.214844 438.46875 C 1403.8125 438.46875 1415.058594 443.128906 1417.160156 446.082031 C 1425.230469 457.394531 1418.9375 473.679688 1423.105469 480.386719 C 1425.601562 484.378906 1427.902344 486.042969 1430.84375 486.355469 L 1430.84375 480.523438 C 1430.261719 480.253906 1429.769531 479.796875 1429.144531 479.113281 " fill-opacity="1" fill-rule="nonzero"/><path fill="#62d6da" d="M 546.804688 812.589844 C 536.140625 787.089844 533.390625 752.035156 520.917969 728.226562 C 514.019531 715.078125 493.035156 686.003906 494.734375 663.601562 C 495.304688 656.101562 495.832031 656.136719 501.441406 664.082031 C 525.433594 698.03125 517.652344 715.761719 549.667969 742.667969 C 561.113281 752.292969 568.402344 760.285156 572.324219 781.960938 C 573.320312 787.414062 573.980469 811.167969 573.679688 830.519531 C 573.464844 844.3125 574.761719 851.925781 579.011719 861.917969 C 582.507812 870.15625 588.121094 877.816406 591.027344 878.328125 C 593.921875 878.832031 595.164062 877.246094 597.890625 869.5 C 613.058594 826.371094 625.246094 832.464844 636.234375 778.941406 C 657.136719 677.140625 636.3125 667.726562 598.90625 649.015625 C 541.796875 620.441406 552.261719 588.09375 484.070312 581.273438 C 463.425781 579.214844 455.308594 583.328125 442.074219 584.011719 C 433.914062 584.425781 434.574219 586.402344 433.230469 587.453125 C 428.089844 595.984375 411.835938 657.933594 408.472656 673.820312 C 402.210938 703.375 398.175781 736.015625 410.226562 764.699219 C 421.472656 791.496094 445.113281 810.441406 468.421875 826.484375 C 481.914062 835.761719 495.339844 844.90625 508.957031 853.992188 C 520.246094 861.539062 529.445312 871.007812 533.167969 884.433594 C 533.871094 886.96875 534.308594 889.519531 534.554688 892.066406 L 540.488281 892.066406 C 539.964844 885.820312 538.296875 879.492188 535.214844 873.164062 C 526.347656 855.011719 507.738281 845.007812 491.371094 834.6875 C 444.445312 805.132812 415.894531 782.003906 410.183594 740.609375 C 402.839844 687.402344 436.910156 591.578125 438.585938 590.261719 C 439.695312 589.386719 442.109375 590.273438 455.03125 588.191406 C 485.636719 583.273438 514.175781 590.730469 530.730469 601.785156 C 544.480469 610.972656 558.988281 631.441406 576.292969 643 C 618.792969 671.40625 654.8125 656.839844 631.382812 774.078125 C 629.246094 784.753906 626.6875 796.066406 625.679688 799.265625 C 619.34375 819.339844 603.894531 837.269531 593.976562 863.785156 C 592.414062 867.96875 590.925781 871.296875 590.660156 871.199219 C 589.832031 870.863281 585.863281 863.652344 583.828125 858.789062 C 579.828125 849.210938 579.121094 844.167969 579.378906 826.628906 C 579.671875 805.738281 579.03125 786.585938 577.824219 780.238281 C 569.128906 734.5625 546.292969 747.5625 527.152344 701.800781 C 523.476562 693.011719 506.707031 654.457031 497.585938 651.941406 C 490.386719 649.953125 487.035156 661.164062 490.242188 676.480469 C 495.453125 701.308594 508.609375 715.761719 517.261719 733.65625 C 528.015625 755.871094 530.820312 789.160156 541.339844 814.289062 C 553.8125 844.078125 547.933594 851.085938 563.863281 873.378906 C 570.246094 882.320312 574.316406 888.121094 577.144531 892.066406 L 583.816406 892.066406 C 581.671875 889.128906 578.484375 884.199219 570.726562 873.488281 C 552.226562 847.945312 560.195312 844.613281 546.804688 812.589844 " fill-opacity="1" fill-rule="nonzero"/><path fill="#62d6da" d="M 693.769531 798.75 C 718.683594 750.234375 718.863281 733.488281 698.878906 691.449219 C 685.394531 663.066406 691.332031 647.347656 682.890625 634.984375 C 675.234375 623.761719 667.734375 629.945312 668.160156 643.613281 C 669.210938 677.921875 685.328125 699.382812 687.808594 730.839844 C 690.796875 768.871094 656.992188 823.164062 647.679688 848.394531 C 641.429688 865.351562 631.59375 879.894531 625.265625 892.066406 L 631.570312 892.066406 C 633.4375 888.679688 635.617188 885.003906 638.03125 880.988281 C 654.152344 854.207031 648.941406 855.683594 665.746094 822.101562 C 675.761719 802.09375 690.324219 768.578125 692.898438 746.300781 C 697.558594 706.023438 670.875 670.65625 673.9375 640.050781 C 674.453125 634.941406 675.457031 634.425781 678.074219 637.9375 C 680.523438 641.210938 682.019531 647.28125 684 661.949219 C 689.398438 701.855469 717.535156 720.300781 703.863281 761.457031 C 687.765625 809.960938 646.203125 856.105469 638.390625 892.066406 L 644.335938 892.066406 C 644.839844 889.953125 645.464844 887.796875 646.171875 885.730469 C 656.097656 856.921875 680.332031 824.894531 693.769531 798.75 " fill-opacity="1" fill-rule="nonzero"/><path fill="#62d6da" d="M 963.628906 321.417969 C 924.257812 294.703125 941.820312 294.914062 899.53125 267.707031 C 883.199219 257.199219 879.097656 254.335938 881.957031 247.675781 C 883.421875 244.242188 887.011719 240.476562 889.054688 240.207031 C 889.683594 240.128906 896.679688 240.039062 904.550781 240.015625 C 920.199219 239.996094 924.46875 241.234375 941.90625 225.328125 C 953.175781 215.054688 960.308594 214.621094 963.492188 211.085938 C 965.347656 209.042969 966.511719 209.308594 969.542969 212.484375 C 971.585938 212.484375 979.613281 233.109375 984.699219 240.6875 C 998.460938 261.210938 1017.050781 260.128906 1037.605469 287.570312 C 1048.828125 302.550781 1058.542969 323.328125 1062.265625 340.355469 C 1064.894531 352.347656 1064.1875 368.121094 1060.289062 384.699219 C 1051 424.148438 1072.101562 437.71875 1029.636719 421.925781 C 1012.074219 366.824219 1012.566406 354.605469 963.628906 321.417969 Z M 998.214844 -25.160156 C 997.507812 -25.160156 986.363281 -38.796875 972.078125 -32.144531 C 946.414062 -20.195312 945.855469 13.675781 938.242188 26.609375 C 934.675781 32.691406 925.933594 36.355469 915.179688 52.597656 C 892.109375 87.441406 885.925781 80.613281 838.863281 122.609375 C 825.460938 134.570312 818.566406 139.164062 810.851562 141.277344 C 805.476562 142.742188 790.964844 143.347656 783.855469 142.382812 C 765.96875 139.980469 762.796875 136.113281 744.785156 136.011719 C 717.457031 135.84375 715.855469 153.695312 693.464844 142.460938 C 673.871094 132.636719 653.359375 110.625 610.878906 91.980469 C 539.023438 60.445312 487.816406 110.839844 453.085938 78.578125 C 447.863281 73.726562 445.339844 68.664062 443.5625 59.519531 C 438.976562 35.832031 440.8125 32.097656 405.320312 12.367188 C 379.574219 -1.941406 380.292969 -13.5 391.011719 -66.765625 C 399.5625 -109.199219 404.828125 -120.121094 420.1875 -127.296875 C 442.476562 -137.726562 445.125 -139.222656 451.878906 -145.203125 C 459.535156 -151.976562 467.460938 -167.671875 476.90625 -172.5 C 485.101562 -176.695312 496.847656 -177.0625 503.96875 -173.363281 C 505.054688 -172.804688 508.796875 -170.164062 512.296875 -167.503906 C 541.273438 -145.40625 540.433594 -107.332031 531.691406 -71.90625 C 522.671875 -35.34375 504.886719 -21.738281 498.59375 0.25 C 493.460938 18.203125 501.253906 33.191406 530.328125 35.550781 C 549.464844 37.105469 547.308594 38.859375 576.382812 45.613281 C 590.46875 48.875 590.246094 48.71875 595.488281 54.5 C 610.789062 71.402344 619.519531 72.09375 636.066406 88.480469 C 648.25 100.554688 646.910156 99.546875 661.988281 104.210938 C 676.753906 108.769531 676.945312 108.703125 686.277344 117.949219 C 708.222656 139.667969 706.65625 126.074219 725.984375 115.308594 C 736 109.722656 785.375 91.757812 799.292969 88.636719 C 824.65625 82.949219 839.019531 86.4375 863.390625 74.183594 C 879.230469 66.226562 900.546875 48.542969 900.546875 41.609375 C 900.546875 33.191406 882.496094 35.730469 862.875 49.503906 C 842.765625 63.621094 838.070312 59.207031 835.222656 35.574219 C 831.230469 2.398438 839.835938 -9.117188 834.863281 -14.996094 C 832.628906 -17.644531 829.273438 -19.121094 825.527344 -19.121094 C 822.957031 -19.121094 821.460938 -18.539062 816.957031 -15.78125 C 787.578125 2.21875 722.964844 -8.894531 689.464844 1.511719 C 640.859375 16.625 615.554688 47.792969 606.878906 36.144531 C 597.710938 23.816406 624.808594 -25.078125 688.761719 -39.421875 C 715.53125 -45.425781 729.4375 -42.675781 753.550781 -41.132812 C 789.355469 -38.851562 792.472656 -31.058594 826.097656 -52.085938 C 837.65625 -59.308594 840.453125 -61.578125 845.28125 -67.660156 C 852.949219 -77.304688 853.867188 -85.65625 847.828125 -90.742188 C 840.0625 -97.28125 828.582031 -85.289062 821.527344 -78.132812 C 805.722656 -62.113281 787.859375 -49.808594 787.859375 -52.824219 C 787.859375 -57.105469 837.769531 -96.441406 851.621094 -137.535156 C 855.027344 -147.664062 852.949219 -201.183594 852.535156 -202.257812 C 850.289062 -208.171875 882.839844 -202.941406 881.554688 -202.941406 C 909.390625 -197.21875 908.664062 -182.449219 942.476562 -174.457031 C 969.328125 -168.109375 975.398438 -164.476562 985.804688 -126.414062 C 994.054688 -96.21875 990.667969 -92.171875 999.667969 -53.808594 C 1004.050781 -35.105469 998.316406 -25.160156 998.214844 -25.160156 Z M 750.476562 164.875 C 748.644531 163.757812 755.304688 165.734375 754.480469 165.734375 C 755.898438 166.5625 751.683594 165.613281 750.476562 164.875 Z M 977.222656 0.84375 C 918.667969 59.039062 983.066406 42.941406 890.261719 108.367188 C 856.738281 131.988281 857.746094 157.585938 766.585938 166.6875 C 739.722656 146.464844 732.601562 172.277344 761.175781 172.277344 C 764.269531 172.277344 764.460938 172.398438 768.519531 177.105469 C 772.890625 182.167969 781.207031 194.507812 784.113281 200.222656 C 787.566406 207.007812 791.859375 225.382812 791.859375 233.320312 C 791.859375 240.945312 789.132812 242.273438 769.816406 244.019531 C 719.324219 248.578125 759.417969 271.863281 664.4375 265.28125 C 640.75 263.636719 644.4375 265.035156 611.796875 266.128906 C 587.507812 266.945312 608.5 266.992188 604.542969 240.117188 C 598.664062 200.097656 560.441406 198.746094 610.769531 146.988281 C 623.558594 133.84375 624.742188 131.875 624.285156 124.632812 C 623.65625 115.074219 618.4375 108.570312 606.878906 102.945312 C 578.519531 89.152344 547.039062 94.707031 514.007812 96.621094 C 391.066406 103.742188 407.398438 165.589844 438.40625 180.859375 C 460.128906 191.535156 489.125 190.945312 505.300781 205.789062 C 519.867188 219.136719 520.882812 235.210938 536.308594 249.808594 C 548.28125 261.144531 566.601562 268.0625 582.933594 270.074219 C 588.980469 270.824219 590.535156 269.605469 576.832031 280.964844 C 573.355469 277.753906 570.136719 274.355469 564.320312 274.355469 C 556.71875 274.355469 541.820312 282.214844 541.898438 282.171875 C 530.695312 254.773438 518.792969 260.988281 484.472656 228.78125 C 458.148438 204.089844 428.144531 215.101562 405.855469 186.125 C 386.527344 161.019531 405.097656 148.007812 404.089844 121.960938 C 401.597656 57.359375 355.867188 45.488281 334.179688 19.375 C 324.601562 7.851562 321.605469 -4.132812 321.191406 -32.402344 C 320.898438 -53.496094 320.898438 -53.496094 306.535156 -60.148438 C 294.316406 -65.824219 281.058594 -75.910156 277.90625 -89.3125 C 276.667969 -94.578125 276.464844 -93.972656 279.917969 -92.777344 C 285.085938 -91 296.855469 -74.800781 303.808594 -75.28125 C 306.511719 -75.460938 306.667969 -75.59375 308.726562 -79.71875 C 314.203125 -90.664062 312.527344 -79.171875 315.566406 -75.527344 C 318.867188 -71.582031 325.839844 -78.511719 329.238281 -89.121094 C 329.898438 -91.167969 331.6875 -95.796875 333.253906 -99.484375 C 340.460938 -116.496094 341.402344 -128.625 343.347656 -108.371094 C 345 -91.199219 343.894531 -87.667969 330.984375 -68.921875 C 326.871094 -62.953125 326.367188 -58.179688 329.664062 -56.425781 C 336.515625 -52.757812 363.480469 -77.148438 365.390625 -112.886719 C 366.472656 -132.972656 347.292969 -165.671875 332.515625 -176.871094 C 317 -188.644531 315.902344 -193.898438 309.464844 -214.519531 C 315.859375 -223.898438 326.007812 -232.652344 330.804688 -235.996094 C 341.457031 -243.417969 359.945312 -249.273438 361.300781 -249.273438 C 363.488281 -249.273438 360.964844 -225.273438 380.671875 -207.277344 C 404.570312 -185.457031 430.886719 -195.597656 454.996094 -202.972656 C 504.292969 -218.054688 508.710938 -216.746094 519.441406 -195.273438 C 527.386719 -179.375 534.21875 -181.703125 539.070312 -161.03125 C 542.457031 -146.554688 544.199219 -134.070312 565.507812 -104.367188 C 582.230469 -81.0625 592.246094 -59.0625 594.089844 -41.613281 C 595.21875 -30.816406 579.503906 -21.605469 579.402344 7.90625 C 579.378906 16.605469 579.546875 18.191406 580.6875 20.070312 C 584.6875 26.664062 591.597656 23 595.609375 12.132812 C 599.34375 2.027344 600.058594 -23.257812 600.71875 -36.148438 C 616.222656 -58.4375 630.699219 -72.925781 629.625 -93.324219 C 628.574219 -113.289062 593.015625 -115.121094 583.660156 -135.5 C 576.976562 -150.03125 599.054688 -161.179688 617.105469 -174.570312 C 610.9375 -131.722656 639.476562 -137.210938 665.832031 -123.785156 C 676.957031 -118.117188 684.894531 -100.890625 689.96875 -90.460938 C 684.648438 -83.207031 680.308594 -77.351562 680.210938 -68.476562 C 680.085938 -58.449219 687.910156 -52.46875 694.105469 -57.878906 C 704.464844 -66.953125 696.304688 -89.265625 696.453125 -88.808594 C 711.6875 -102.835938 725.203125 -112.058594 752.34375 -115.847656 C 787.410156 -120.746094 811.175781 -134.460938 811.175781 -149.785156 C 811.175781 -163.882812 794.128906 -168.535156 781.183594 -171.765625 C 766.675781 -175.386719 759.957031 -176.292969 753.5625 -188.476562 C 738.492188 -217.183594 695.066406 -228.863281 665.699219 -215.773438 L 661.316406 -213.828125 C 643.6875 -220.835938 629.023438 -230.273438 614.246094 -232.699219 C 608.355469 -233.671875 608.925781 -233.246094 614.535156 -241.460938 C 630.824219 -265.304688 660.390625 -283.78125 686.792969 -276.953125 C 688.390625 -276.953125 699.636719 -272.292969 701.738281 -269.339844 C 709.808594 -258.027344 703.503906 -241.742188 707.6875 -235.046875 C 714.316406 -224.414062 719.613281 -230.261719 739.128906 -234.261719 C 766.832031 -239.929688 767.367188 -240.097656 786.011719 -248.539062 C 799.292969 -254.5625 803.542969 -255.625 808.761719 -254.25 C 817.46875 -251.96875 827.550781 -243.753906 832.816406 -227.230469 C 840.597656 -202.804688 848.78125 -208.84375 847.527344 -189.683594 C 845.816406 -163.300781 853.800781 -153.339844 841.222656 -127.496094 C 825.605469 -95.382812 787.890625 -63.289062 783.195312 -55.585938 C 780.289062 -50.824219 782.691406 -44.542969 787.03125 -45.558594 C 794.25 -47.269531 814.84375 -62.503906 825.449219 -74.007812 C 845.539062 -95.796875 848.5 -84.738281 844.097656 -75.910156 C 837.9375 -63.554688 809.679688 -47.59375 797.449219 -44.453125 C 785.34375 -41.34375 782.066406 -44.855469 757.140625 -46.476562 C 736.59375 -47.792969 723.503906 -49.472656 713.789062 -48.84375 C 613.820312 -42.441406 578.039062 42.269531 611.707031 44.136719 C 625.980469 44.929688 660.46875 12.570312 701.90625 4.242188 C 719.847656 0.628906 777.238281 3.46875 805.832031 -4.476562 C 822.566406 -9.128906 822.746094 -17.714844 831.253906 -10.804688 C 828.054688 7.484375 826.332031 48.417969 837.175781 59.519531 C 848.488281 71.109375 865.636719 52.519531 878.191406 46.851562 C 883.46875 44.460938 891.414062 42.089844 893.25 42.347656 C 897.238281 42.917969 870.34375 68.898438 844.902344 75.539062 C 812.964844 83.875 817.15625 72.550781 741.800781 102.34375 C 709.304688 115.1875 708.546875 123.617188 703.886719 123.617188 C 701.089844 123.617188 696.765625 120.464844 689.085938 112.816406 C 680.691406 104.476562 677.894531 102.945312 663.09375 98.554688 C 649.402344 94.484375 651.582031 95.804688 639.429688 83.820312 C 622.25 66.851562 615.429688 67.78125 598.496094 49.480469 C 590 40.3125 585.574219 43.164062 556.316406 34.589844 C 532.027344 27.457031 518.246094 32.21875 507.90625 21.957031 C 488.957031 3.125 525.746094 -23.515625 537.347656 -70.644531 C 543.953125 -97.449219 544.703125 -118.097656 539.761719 -137.402344 C 536.117188 -151.632812 520.335938 -172 508.675781 -177.519531 C 493.117188 -184.886719 477.128906 -181.835938 466.746094 -172.007812 C 456.136719 -161.984375 454.515625 -149.585938 430.472656 -138.40625 C 403.855469 -126.03125 397.082031 -126.648438 384.984375 -65.625 C 381.34375 -47.191406 374.355469 -16.605469 382.023438 -1.078125 C 389.601562 14.246094 414.921875 21.800781 426.917969 32.613281 C 444.488281 48.441406 427.585938 79.496094 465.605469 92.671875 C 477.589844 96.820312 488.667969 96.417969 522.703125 90.570312 C 564.242188 83.441406 577.691406 82.402344 617.554688 101.28125 C 675.28125 128.636719 688.929688 164.304688 724.464844 146.285156 C 749.796875 133.429688 761.867188 148.601562 795.480469 148.453125 C 818.464844 148.355469 826.746094 141.019531 844.207031 125.515625 C 890.722656 84.179688 897.25 91.0625 921.976562 52.53125 C 933.714844 34.234375 942.34375 40.882812 949.910156 10.925781 C 955.1875 -9.945312 969.160156 -35.765625 988.152344 -25.984375 C 990.367188 -24.835938 994.59375 -20.519531 994.601562 -19.378906 C 994.613281 -17.625 987.640625 -9.507812 977.222656 0.84375 Z M 597.824219 255.621094 C 596.316406 260.441406 593.363281 265.660156 592.144531 265.660156 C 589.417969 265.660156 574.484375 262.6875 568.445312 260.941406 C 540.589844 252.90625 532.886719 238.472656 525.308594 224.234375 C 501.398438 179.308594 474.191406 191.625 441.011719 175.839844 C 424.726562 168.09375 404.066406 137.445312 447.941406 115.121094 C 472.1875 102.777344 522.773438 102.042969 542.714844 100.296875 C 566.679688 98.207031 576.773438 100.351562 576.707031 100.351562 C 590.894531 102.097656 617.261719 108.769531 618.628906 124.375 C 619.835938 138.328125 584.152344 154.421875 579.714844 186.4375 C 576.730469 208 606.195312 228.804688 597.824219 255.621094 Z M 587.28125 311.839844 C 587.058594 313.058594 585.394531 317.171875 583.582031 320.984375 C 575.132812 338.765625 580.074219 335.378906 580.074219 388.132812 C 580.074219 419.609375 586.867188 466.671875 471.003906 497.078125 C 467.75 497.925781 423.910156 507.417969 425.171875 504.320312 C 426.660156 500.664062 435.042969 486.828125 441.707031 471.46875 C 472.882812 399.667969 476.203125 442.390625 521.542969 379.167969 C 537.671875 356.675781 533.15625 334.363281 554.71875 308.976562 C 558.332031 304.71875 574.035156 289.660156 574.863281 289.660156 C 575.007812 289.660156 576.707031 292.175781 576.640625 292.175781 C 580.921875 298.9375 588.746094 303.835938 587.28125 311.839844 Z M 513.71875 326.894531 C 508.597656 334.664062 510.910156 340.644531 506.832031 343.050781 C 495.460938 349.746094 494.1875 351.355469 493.664062 359.792969 C 493.226562 366.65625 492.566406 367.6875 487.515625 369.375 C 476.648438 372.984375 456.269531 368 446.859375 376.371094 C 444.386719 378.574219 444.007812 379.277344 444.007812 381.582031 C 444.007812 395.386719 488.855469 390.289062 446.097656 413.820312 C 418.363281 429.066406 419.359375 464.023438 406.863281 482.277344 C 401.484375 490.136719 399.707031 487.296875 396.980469 466.449219 C 392.957031 435.539062 392.332031 407.816406 405.921875 380.0625 C 433.164062 324.425781 480.015625 332.640625 530.273438 296.882812 C 534.84375 293.617188 538.621094 291.003906 538.746094 291.003906 C 539.035156 291.003906 542.546875 302.382812 542.535156 302.304688 C 533.683594 317.40625 521.351562 315.304688 513.71875 326.894531 Z M 586.800781 16.828125 C 583.773438 19.332031 581.960938 1.660156 591.554688 -19.3125 C 594.625 -26.03125 594.75 -25.539062 593.789062 -10.480469 C 593.855469 -10.480469 592.613281 12.019531 586.800781 16.828125 Z M 691.933594 -83.152344 C 693.546875 -83.152344 695.445312 -62.796875 689.332031 -61.925781 C 686.132812 -61.453125 684.792969 -68.09375 686.828125 -74.265625 C 687.945312 -77.628906 691.121094 -83.152344 691.933594 -83.152344 Z M 677.136719 -200.859375 C 677.136719 -199.230469 673.691406 -198.558594 673.265625 -191.617188 C 672.5625 -180.335938 688.46875 -174.535156 694.707031 -181.9375 C 702.777344 -191.527344 687.320312 -198.679688 689.585938 -200.066406 C 689.902344 -200.257812 692.070312 -200.761719 694.351562 -201.175781 C 708.011719 -203.65625 724.585938 -194.523438 725.605469 -183.96875 C 726.488281 -174.78125 713.519531 -161.570312 691.296875 -162.71875 C 669.398438 -163.859375 643.1875 -177.945312 652.398438 -196.859375 C 654.097656 -200.359375 660.480469 -207.222656 662.023438 -207.222656 C 663.765625 -207.222656 677.136719 -201.84375 677.136719 -200.859375 Z M 678.757812 -192.289062 C 679.167969 -193.941406 681.652344 -197.238281 682.46875 -197.238281 C 682.960938 -197.238281 687.140625 -193.496094 687.082031 -193.496094 C 700.363281 -181.152344 676.296875 -182.472656 678.757812 -192.289062 Z M 306.367188 -117.335938 C 307.898438 -111.734375 309.007812 -107.03125 308.828125 -106.851562 C 308.167969 -106.191406 296.566406 -107.933594 293.960938 -109.074219 C 284.804688 -113.089844 284.15625 -126.546875 272.867188 -132.191406 C 270.519531 -133.367188 268.035156 -134.929688 267.433594 -135.625 C 263.285156 -140.339844 263.164062 -170.800781 272.632812 -191.648438 C 277.460938 -202.257812 289.925781 -222.359375 293.648438 -225.511719 C 296.386719 -227.835938 297.546875 -227.097656 300.53125 -221.128906 C 303.539062 -215.125 303.496094 -215.582031 300.890625 -209.378906 C 293.15625 -190.921875 301.917969 -167.4375 301.898438 -167.515625 C 301.539062 -136.609375 300.914062 -137.355469 306.367188 -117.335938 Z M 376.15625 -266.234375 C 379.261719 -269.160156 383.867188 -270.347656 381.910156 -266.546875 C 383.332031 -266.546875 370.320312 -255.546875 370.320312 -257.78125 C 370.320312 -258.832031 374.066406 -264.253906 376.15625 -266.234375 Z M 597.667969 -224.75 C 579.433594 -192.535156 556.375 -189.863281 551.355469 -194.066406 C 543.597656 -200.582031 562.421875 -227.757812 596.269531 -228.484375 C 600.898438 -228.582031 600.382812 -229.546875 597.667969 -224.75 Z M 869.71875 795.964844 C 888.238281 716.921875 888.5625 699.765625 845.816406 624.890625 C 840.316406 615.253906 834.660156 605.699219 829.945312 595.648438 C 826.234375 587.746094 820.765625 579.628906 819.113281 570.976562 C 818.230469 566.292969 818.261719 561.5 818.296875 556.746094 C 818.332031 552.421875 818.375 548.027344 819.738281 543.925781 C 821.71875 538 822.199219 532.199219 823.292969 525.984375 C 824.378906 519.800781 823.785156 513.777344 821.078125 508.078125 C 816.171875 497.726562 805.261719 490.683594 794.320312 488.257812 C 780.582031 485.195312 766.460938 489.507812 754.175781 495.578125 C 729.605469 507.707031 706.722656 531.003906 677.089844 526.5 C 664.347656 524.566406 652.453125 518.339844 642.984375 509.6875 C 633.226562 500.753906 623.992188 488.191406 623.800781 474.453125 C 623.589844 459.605469 631.851562 445.0625 639.789062 433.023438 C 647.757812 420.929688 657.328125 409.996094 667.097656 399.332031 C 676.644531 388.902344 686.570312 378.550781 698.140625 370.324219 C 710.078125 361.828125 723.359375 356.453125 737.867188 354.292969 C 752.835938 352.070312 768.171875 352.964844 783.195312 354.136719 C 797.15625 355.234375 811.175781 356.382812 825.027344 358.566406 C 838.519531 360.710938 852 363.828125 864.621094 369.160156 C 877.273438 374.515625 888.496094 382.21875 898.222656 391.910156 C 917.707031 411.316406 931.566406 436.03125 954.261719 452.183594 C 965.09375 459.910156 977.703125 465.699219 991.09375 466.773438 C 1003.914062 467.800781 1016.925781 463.765625 1026.484375 455.046875 C 1031.023438 450.898438 1034.96875 444.402344 1034.230469 438.011719 C 1034.074219 436.601562 1030.910156 430.363281 1032.074219 429.378906 C 1032.253906 429.234375 1035.359375 430.171875 1038.96875 431.46875 C 1064.835938 440.714844 1063.292969 424.761719 1063.292969 412.074219 C 1063.292969 381.894531 1068.179688 389.921875 1069.085938 360.933594 C 1070.414062 318.746094 1041.5625 273.640625 1012.097656 256.976562 C 994.03125 246.769531 989.292969 239.011719 982.484375 224.175781 C 976.984375 212.195312 969.640625 197.71875 959.882812 206.707031 C 955.949219 210.328125 951.746094 209.074219 934.09375 224.601562 C 910.429688 245.40625 893.773438 225.585938 880.761719 239.101562 C 877.957031 242.019531 875.207031 248 875.207031 251.171875 C 875.207031 265.058594 904.648438 272.738281 925.0625 294.871094 C 968.914062 342.445312 994.324219 333.367188 1013.996094 390.859375 C 1016.871094 399.242188 1022.660156 418.605469 1022.394531 418.871094 C 1022.28125 418.984375 1020.257812 418.449219 1017.910156 417.699219 C 980.808594 405.882812 974.3125 412.691406 946.671875 385.167969 C 928.472656 367.050781 915.796875 359.59375 890.507812 352.125 C 880.191406 349.085938 878.671875 347.339844 867.503906 325.8125 C 855.980469 303.554688 853.429688 296.757812 834.425781 291.785156 C 822.667969 288.710938 809.265625 284.460938 805.898438 282.753906 C 788.539062 273.910156 796.019531 255.933594 812.058594 242.152344 C 829.105469 227.496094 811.835938 207.597656 844.589844 221.347656 C 859.265625 227.507812 861.324219 227.988281 873.171875 227.988281 C 883.46875 227.988281 883.554688 227.976562 888.039062 225.863281 C 901.429688 219.570312 908.695312 202.234375 921.195312 195.402344 C 936.273438 187.164062 969.472656 195.570312 987.894531 187.613281 C 999.65625 182.527344 1006.363281 170.789062 1013.28125 160.335938 C 1029.042969 136.527344 1035.28125 133.84375 1035.28125 123.359375 C 1035.28125 110.570312 1017.597656 84.671875 1008.84375 73.558594 C 993.375 53.894531 990.234375 47.355469 990.277344 37.609375 C 990.355469 14.75 1009.972656 4.644531 1002.898438 -16.015625 C 1001.824219 -19.132812 1001.835938 -19.246094 1003.65625 -23.3125 C 1011.839844 -41.558594 1004.417969 -49.238281 997.308594 -99.796875 C 994.648438 -118.667969 988.164062 -141.4375 981.589844 -154.941406 C 974.390625 -169.71875 967.765625 -174.246094 945.394531 -179.589844 C 909.792969 -188.09375 911.679688 -204.335938 876.847656 -209.570312 C 845.046875 -214.34375 852.804688 -202.570312 844.800781 -214.644531 C 836.753906 -226.796875 838.597656 -237.929688 825.652344 -250.371094 C 809.441406 -265.964844 798.789062 -260.585938 781.820312 -252.941406 C 751.492188 -239.238281 743.949219 -242.96875 722.933594 -236.230469 C 716.394531 -234.128906 715.734375 -234.128906 713.722656 -236.308594 C 707.539062 -243.015625 724.699219 -282.363281 677.078125 -283.617188 C 644.371094 -284.464844 620.101562 -261.828125 603 -234.082031 C 585.28125 -233.347656 570.269531 -233.3125 553.324219 -216.230469 C 523.398438 -186.09375 570.703125 -165.972656 603.132812 -222.714844 C 606.429688 -228.496094 606.429688 -228.496094 614.054688 -226.894531 C 630.734375 -223.375 651.917969 -210.585938 654.453125 -210.585938 C 658.445312 -210.585938 640.894531 -200.738281 646.035156 -182.886719 C 653.941406 -155.441406 715.097656 -145.339844 729.839844 -175.585938 C 737.519531 -191.316406 717.445312 -214.074219 683.171875 -204.417969 C 668.316406 -211.75 667.050781 -211.234375 678.152344 -213.792969 C 702.980469 -219.519531 736.90625 -208.863281 748.332031 -186.195312 C 760.359375 -162.285156 785.824219 -169.742188 799.996094 -158.917969 C 807.734375 -153.007812 806.804688 -146.308594 800.433594 -139.949219 C 791.902344 -131.410156 772.746094 -124.300781 750.128906 -121.269531 C 710.15625 -115.925781 696.039062 -93.347656 694.160156 -95.226562 C 692.964844 -96.421875 683.304688 -121.316406 668.371094 -128.871094 C 652.710938 -136.796875 626.898438 -138.867188 622.015625 -155.699219 C 619.320312 -165.023438 625.335938 -177.027344 622.863281 -180.796875 C 619.164062 -186.441406 616.457031 -180.25 598.371094 -168.03125 C 583.875 -158.238281 571.421875 -147.371094 579.167969 -131.8125 C 583.214844 -123.695312 590.300781 -118.128906 610.566406 -107.140625 C 623.902344 -99.898438 625.859375 -96.5 623.355469 -84.929688 C 619.921875 -69.125 600.082031 -45.367188 599.890625 -45.289062 C 598.125 -44.632812 600.441406 -52.367188 588.722656 -76.992188 C 573.019531 -110.015625 555.179688 -119.472656 545.976562 -156.582031 C 538.242188 -187.828125 533.703125 -179.476562 524.058594 -198.839844 C 512.351562 -222.324219 503.085938 -223.722656 455.824219 -209.132812 C 427.417969 -200.359375 419.707031 -198.792969 410.203125 -199.867188 C 374.679688 -203.878906 365.804688 -243.785156 367.984375 -249.398438 C 368.609375 -251.019531 383.523438 -257.222656 387.324219 -264.644531 C 392.398438 -274.539062 375.84375 -282.074219 365.445312 -260.644531 L 363.265625 -256.128906 C 347.449219 -250.941406 322.933594 -243.910156 307.050781 -220.9375 C 304.511719 -226.046875 301.539062 -232.5625 295.804688 -232.5625 C 286.46875 -232.5625 268.695312 -197.699219 265.265625 -189.113281 C 261.140625 -178.785156 258.402344 -160.148438 259.0625 -146.871094 C 259.640625 -135.3125 261.722656 -131.464844 269.570312 -127.496094 C 283.039062 -120.667969 278.386719 -104.289062 300.5 -101.832031 C 308.425781 -100.949219 313.566406 -98.5 314.640625 -102.847656 C 316.484375 -110.371094 306.511719 -124.8125 307.308594 -153.980469 C 308.078125 -181.957031 301.628906 -175.632812 303.449219 -194.511719 C 304.3125 -203.511719 305.128906 -204.898438 305.777344 -206.773438 C 311.195312 -190.644531 312.71875 -185.042969 326.925781 -174.144531 C 344.933594 -160.339844 357.867188 -131.074219 359.746094 -120.445312 C 362.507812 -104.691406 349.671875 -74.042969 336.328125 -64.539062 C 333.566406 -62.574219 333.6875 -62.828125 340.460938 -72.925781 C 349.171875 -85.902344 350.445312 -91.289062 349.035156 -109.074219 C 348.230469 -119.167969 347.539062 -121.449219 344.53125 -123.796875 C 333.585938 -132.359375 331.800781 -103.140625 319.367188 -81.507812 C 318.988281 -83.152344 317.980469 -88.183594 316.941406 -89.445312 C 315.566406 -91.121094 311.933594 -91.402344 309.585938 -90.027344 C 307.484375 -88.796875 303.617188 -83.632812 303.617188 -82.078125 C 303.617188 -81.566406 303.351562 -81.183594 302.980469 -81.183594 C 301.984375 -81.183594 292.027344 -89.570312 290.394531 -91.792969 C 285.429688 -98.523438 277.035156 -99.058594 275.570312 -100.8125 C 274.285156 -102.367188 271.671875 -102.089844 270.863281 -100.3125 C 269.769531 -97.917969 272.429688 -85.890625 275.390625 -79.789062 C 284.605469 -60.804688 310.714844 -53.820312 314.226562 -49.359375 C 318.304688 -44.160156 310.3125 -5.394531 325.820312 17.597656 C 346.765625 48.640625 398.222656 58.289062 398.488281 124.320312 C 398.566406 145.367188 385.386719 155.855469 394.375 177.417969 C 402.425781 196.722656 419.035156 208.894531 447.5625 216.363281 C 466.042969 221.191406 470.667969 223.460938 479.644531 232.035156 C 508.886719 260.003906 525.914062 261.859375 533.714844 277.980469 C 535.167969 280.964844 536.363281 283.902344 536.363281 284.460938 C 536.363281 285.882812 518.511719 298.570312 509.367188 303.65625 C 474.335938 323.128906 388.875 331.019531 388.964844 433.359375 C 388.976562 452.476562 392.417969 481.515625 395.335938 487.160156 C 398.8125 493.890625 405.507812 493.511719 410.898438 486.265625 C 423.988281 468.683594 424.703125 431 447.941406 419.285156 C 498.726562 393.710938 449.652344 385.382812 449.652344 381.839844 C 449.652344 376.875 468.152344 376.59375 472.335938 376.4375 C 486.230469 375.925781 499.015625 375.890625 499.015625 362.019531 C 499.015625 353.367188 501.835938 352.910156 509.179688 348.203125 C 517.820312 342.667969 513.550781 338.199219 518.019531 330.640625 C 523.140625 322.011719 537.257812 320.1875 545.386719 308.785156 C 549.164062 303.488281 548.078125 298.457031 544.089844 288.902344 C 543.105469 286.574219 557.839844 280.328125 564.320312 280.328125 C 568.113281 280.328125 568.378906 280.953125 572.070312 284.328125 C 526.761719 325.027344 535.714844 337.59375 523.699219 364.175781 C 516.613281 379.871094 491.574219 407.515625 478.113281 414.511719 C 458.148438 424.886719 446.980469 444.75 439.324219 462.769531 C 423.675781 499.582031 415.179688 504.074219 419.996094 508.890625 C 426.199219 515.097656 558.195312 494.605469 581.089844 431.839844 C 588.402344 411.808594 585.796875 362.566406 584.386719 347.597656 C 581.929688 321.597656 603.109375 313.714844 586.992188 296.019531 C 582.453125 291.046875 580.957031 288.496094 579.433594 286.171875 C 586.03125 280.839844 586.859375 279.957031 595.511719 271.6875 C 633.347656 271.585938 642.984375 269.5625 656.109375 270.457031 C 764.707031 277.855469 720.820312 254.515625 769.882812 249.699219 C 785.421875 248.167969 794.105469 247.929688 797.203125 238.597656 C 799.179688 232.628906 795.984375 200 774.53125 175.515625 L 771.917969 172.53125 C 793.066406 167.925781 798.128906 170.476562 821.59375 162.605469 C 864.742188 148.140625 870.925781 128.457031 892.542969 113.65625 C 984.8125 50.453125 927.757812 58.164062 979.890625 6.242188 C 992.625 -6.445312 994.847656 -9.496094 997.8125 -13.085938 C 999.5 -5.507812 999.835938 -4.378906 992.265625 11.183594 C 973.050781 50.699219 991.695312 55.71875 1015.585938 92.429688 C 1023.109375 103.988281 1029.972656 119.1875 1029.925781 124.1875 C 1029.894531 127.203125 1027.558594 131.296875 1021.21875 139.433594 C 1005.714844 159.332031 998.582031 176.042969 986.945312 181.6875 C 967.765625 190.976562 939.046875 181.429688 920.558594 189.234375 C 908.039062 194.507812 897.742188 213.746094 887.972656 219.492188 C 859.96875 235.960938 821.394531 188.148438 815.132812 225.953125 C 814.128906 232.046875 813.265625 233.601562 808.828125 237.445312 C 781.183594 261.34375 787.074219 282.214844 809.074219 290.195312 C 846.457031 303.746094 843.527344 290.621094 862.015625 327.398438 C 874.433594 352.113281 876.15625 353.914062 891.660156 358.476562 C 913.515625 364.914062 925.664062 372.15625 941.839844 388.378906 C 971.453125 418.078125 976.707031 410.566406 1024.550781 425.792969 C 1025.566406 426.128906 1026.988281 434.175781 1027.1875 435.496094 C 1027.882812 440.078125 1027.332031 443.296875 1024.875 447.1875 C 1020.234375 454.53125 1011.371094 458.65625 1003.007812 460.253906 C 990.054688 462.738281 976.75 458.667969 965.515625 452.308594 C 940.957031 438.402344 926.402344 413.675781 907.835938 393.351562 C 898.558594 383.191406 888.0625 374.292969 875.820312 367.886719 C 863.582031 361.480469 850.265625 357.378906 836.753906 354.640625 C 822.980469 351.859375 808.960938 350.382812 794.976562 349.164062 C 779.933594 347.84375 764.796875 346.457031 749.683594 347.21875 C 734.816406 347.96875 720.148438 351.007812 706.890625 357.925781 C 694.304688 364.488281 683.40625 373.902344 673.46875 383.929688 C 663.25 394.234375 653.402344 405.113281 644.4375 416.535156 C 635.316406 428.152344 627.066406 440.660156 621.800781 454.53125 C 619.085938 461.652344 617.308594 469.421875 617.96875 477.078125 C 618.617188 484.480469 621.421875 491.433594 625.324219 497.714844 C 632.308594 508.949219 642.3125 518.460938 653.949219 524.789062 C 665.308594 530.957031 678.476562 534.1875 691.398438 532.601562 C 705.929688 530.824219 718.929688 523.78125 731.183594 516.167969 C 752.632812 502.832031 781.074219 482.667969 806.054688 499.769531 C 810.414062 502.765625 814.226562 506.925781 816.273438 511.84375 C 818.84375 517.980469 817.894531 524.320312 816.027344 530.511719 C 812.574219 542.003906 811.613281 552.523438 811.859375 564.539062 C 811.902344 566.773438 811.957031 569.042969 812.496094 571.222656 C 812.898438 572.890625 813.589844 574.464844 814.273438 576.042969 C 822.34375 594.554688 831.96875 612.226562 842.0625 629.765625 C 876.132812 688.976562 883.019531 713.210938 868.933594 774.347656 C 858.035156 821.644531 855.128906 829.589844 839.503906 854.957031 C 829.6875 870.875 817.613281 882.867188 804.972656 892.066406 L 813.445312 892.066406 C 844.242188 867.832031 860.730469 834.34375 869.71875 795.964844 " fill-opacity="1" fill-rule="nonzero"/><path fill="#62d6da" d="M 364.519531 -499.394531 C 368.375 -483.050781 379.476562 -468.84375 393.304688 -459.609375 C 418.097656 -443.03125 449.015625 -445.277344 475.734375 -456.445312 C 469.371094 -446.808594 464.453125 -436.257812 461.425781 -425.089844 C 456.628906 -407.359375 458.628906 -387.832031 473.640625 -375.625 C 487.359375 -364.480469 505.914062 -361.519531 523.050781 -360.769531 C 562.054688 -359.058594 599.746094 -371.949219 634.054688 -389.476562 C 670.25 -407.953125 703.449219 -431.5625 737.542969 -453.503906 C 808.605469 -499.246094 890.421875 -537.457031 976.71875 -535.589844 C 996.816406 -535.152344 1019.398438 -533.914062 1037.035156 -523.226562 C 1052.699219 -513.722656 1063.886719 -493.019531 1053.277344 -475.785156 C 1048.160156 -467.457031 1039.640625 -461.777344 1031.414062 -456.871094 C 1022.4375 -451.527344 1013.125 -446.742188 1003.589844 -442.496094 C 983.871094 -433.742188 963.035156 -427.4375 941.808594 -423.648438 C 921.953125 -420.09375 902.023438 -419.9375 881.957031 -418.707031 C 864.140625 -417.621094 845.4375 -415.273438 829.933594 -405.730469 C 800.992188 -387.921875 795.390625 -349.578125 810.082031 -320.558594 C 826.222656 -288.703125 864.722656 -275.007812 898.648438 -277.578125 C 919.28125 -279.144531 938.53125 -287.023438 958.386719 -292.179688 C 976.707031 -296.929688 995.476562 -298.816406 1012.847656 -289.898438 C 1026.585938 -282.84375 1038.523438 -269.328125 1035.335938 -252.898438 C 1032.230469 -236.910156 1019.878906 -224.011719 1017.796875 -207.78125 C 1016.925781 -200.960938 1018.847656 -194.320312 1023.746094 -189.390625 C 1029.011719 -184.09375 1036.488281 -182.273438 1043.597656 -181.019531 C 1050.472656 -179.8125 1058.453125 -179.277344 1064.335938 -175.09375 C 1072.996094 -168.902344 1071.464844 -156.5625 1069.945312 -147.394531 C 1063.6875 -109.601562 1039.507812 -75.820312 1039.472656 -36.816406 C 1039.460938 -17.726562 1046.671875 -0.265625 1057.382812 15.261719 C 1068.59375 31.484375 1082.757812 45.355469 1094.347656 61.273438 C 1106.21875 77.558594 1116.648438 97.101562 1114.804688 117.890625 C 1113.128906 136.71875 1100.339844 151.832031 1090.839844 167.324219 C 1081.726562 182.191406 1075.816406 198.5 1079.941406 216.027344 C 1083.796875 232.371094 1094.894531 246.578125 1108.722656 255.8125 C 1133.519531 272.390625 1164.4375 270.144531 1191.152344 258.976562 C 1184.792969 268.613281 1179.875 279.164062 1176.84375 290.332031 C 1172.050781 308.058594 1174.050781 327.589844 1189.0625 339.796875 C 1202.78125 350.929688 1221.335938 353.902344 1238.472656 354.652344 C 1277.472656 356.363281 1315.167969 343.472656 1349.472656 325.945312 C 1377.8125 311.480469 1404.316406 293.875 1430.84375 276.378906 L 1430.84375 269.28125 C 1426.71875 271.976562 1422.59375 274.691406 1418.46875 277.398438 C 1385.445312 299.117188 1351.753906 320.992188 1314.621094 335.078125 C 1296.800781 341.832031 1278.167969 346.714844 1259.152344 348.28125 C 1241.15625 349.765625 1221.269531 349.285156 1204.421875 342.078125 C 1196.5625 338.722656 1189.320312 333.523438 1184.9375 326.070312 C 1179.820312 317.347656 1179.507812 306.785156 1181.394531 297.082031 C 1184.480469 281.222656 1192.527344 266.109375 1202.691406 253.453125 C 1207.363281 250.9375 1211.84375 248.167969 1216.058594 245.203125 C 1243.167969 226.121094 1267.101562 191.445312 1250.632812 157.742188 C 1241.769531 139.589844 1223.15625 129.585938 1206.792969 119.265625 C 1159.867188 89.710938 1131.316406 66.582031 1125.605469 25.191406 C 1118.257812 -28.019531 1152.332031 -123.839844 1154.007812 -125.160156 C 1155.113281 -126.023438 1157.527344 -125.148438 1170.453125 -127.230469 C 1201.058594 -132.160156 1229.597656 -124.679688 1246.152344 -113.636719 C 1259.902344 -104.445312 1274.410156 -83.980469 1291.714844 -72.421875 C 1334.203125 -44.015625 1370.234375 -58.582031 1346.804688 58.65625 C 1344.667969 69.332031 1342.109375 80.644531 1341.101562 83.84375 C 1334.761719 103.917969 1319.316406 121.839844 1309.398438 148.363281 C 1307.835938 152.546875 1306.347656 155.875 1306.078125 155.777344 C 1305.253906 155.441406 1301.285156 148.242188 1299.25 143.367188 C 1295.246094 133.789062 1294.542969 128.746094 1294.800781 111.207031 C 1295.089844 90.316406 1294.453125 71.167969 1293.246094 64.816406 C 1284.550781 19.140625 1261.710938 32.140625 1242.574219 -13.621094 C 1238.898438 -22.410156 1222.128906 -60.964844 1213.007812 -63.476562 C 1205.808594 -65.46875 1202.457031 -54.253906 1205.664062 -38.941406 C 1210.871094 -14.113281 1224.03125 0.339844 1232.683594 18.246094 C 1243.4375 40.449219 1246.242188 73.738281 1256.761719 98.867188 C 1269.234375 128.644531 1263.355469 135.667969 1279.285156 157.957031 C 1297.941406 184.070312 1296.859375 183.453125 1302.625 187.757812 C 1315.683594 197.484375 1314.898438 184.527344 1331.097656 166.808594 C 1350.625 145.457031 1360.753906 116.941406 1370.054688 89.8125 C 1378.605469 64.871094 1387.347656 40.011719 1387.234375 11.171875 C 1387.144531 -11.027344 1385.613281 -15.410156 1374.714844 -34.941406 C 1354.472656 -71.226562 1360.273438 -77.617188 1341.425781 -107.308594 C 1336.597656 -114.898438 1331.847656 -123.753906 1331.621094 -125.53125 C 1331.609375 -125.597656 1365.617188 -128.851562 1399.351562 -119.894531 C 1410.789062 -116.867188 1421.238281 -114.699219 1430.84375 -112.929688 L 1430.84375 -118.84375 C 1397.273438 -125.429688 1375.128906 -132.972656 1351.84375 -131.722656 C 1332.382812 -130.660156 1329.128906 -133.367188 1326.59375 -128.9375 C 1322.085938 -121.046875 1341.101562 -104.300781 1352.714844 -70.152344 C 1369.214844 -21.648438 1381.300781 -27.742188 1381.589844 10.902344 C 1381.757812 33.863281 1378.394531 48.21875 1360.964844 98.910156 C 1351.21875 127.261719 1339.4375 149.640625 1327.777344 161.933594 C 1308.550781 182.222656 1314.171875 189.601562 1304.527344 182.078125 C 1299.214844 177.933594 1300.414062 177.753906 1286.148438 158.066406 C 1267.648438 132.515625 1275.628906 129.195312 1262.226562 97.167969 C 1251.5625 71.667969 1248.8125 36.613281 1236.324219 12.804688 C 1229.441406 -0.34375 1208.457031 -29.417969 1210.15625 -51.820312 C 1210.726562 -59.320312 1211.253906 -59.285156 1216.863281 -51.339844 C 1240.851562 -17.390625 1233.074219 0.339844 1265.078125 27.246094 C 1276.535156 36.871094 1283.824219 44.863281 1287.746094 66.539062 C 1288.742188 71.992188 1289.402344 95.746094 1289.101562 115.097656 C 1288.886719 128.890625 1290.183594 136.503906 1294.433594 146.5 C 1297.929688 154.738281 1303.542969 162.394531 1306.449219 162.90625 C 1309.34375 163.421875 1310.585938 161.824219 1313.3125 154.078125 C 1328.480469 110.960938 1340.664062 117.042969 1351.65625 63.519531 C 1372.558594 -38.28125 1351.734375 -47.695312 1314.328125 -66.40625 C 1257.21875 -94.980469 1267.683594 -127.328125 1199.492188 -134.136719 C 1178.847656 -136.207031 1170.730469 -132.089844 1157.496094 -131.410156 C 1149.335938 -130.996094 1149.996094 -129.027344 1148.652344 -127.964844 C 1143.511719 -119.4375 1127.257812 -57.488281 1123.894531 -41.601562 C 1117.632812 -12.046875 1113.597656 20.59375 1125.648438 49.277344 C 1136.894531 76.074219 1160.535156 95.019531 1183.84375 111.050781 C 1197.335938 120.339844 1210.761719 129.484375 1224.375 138.574219 C 1235.667969 146.117188 1244.867188 155.585938 1248.589844 169 C 1258.953125 206.449219 1222.519531 233.96875 1194.785156 250.75 C 1177.570312 261.167969 1153.058594 264.386719 1133.640625 260.046875 C 1116.527344 256.238281 1101.289062 245.347656 1092.234375 230.304688 C 1082.945312 214.886719 1082.296875 197.394531 1090 181.195312 C 1097.433594 165.546875 1109.328125 152.433594 1116.058594 136.402344 C 1123.445312 118.832031 1121.613281 100.265625 1114.089844 83.050781 C 1106.175781 64.941406 1093.265625 49.949219 1080.578125 35.050781 C 1068.269531 20.59375 1055.546875 5.414062 1049.367188 -12.816406 C 1036.65625 -50.289062 1058.375 -87.1875 1069.667969 -122.007812 C 1072.59375 -131.03125 1074.988281 -140.21875 1076.261719 -149.621094 C 1077.4375 -158.238281 1077.917969 -167.941406 1072.472656 -175.320312 C 1063.351562 -187.714844 1046.125 -184.183594 1033.558594 -189.839844 C 1016.46875 -197.53125 1025.824219 -216.074219 1031.816406 -228.09375 C 1038.578125 -241.683594 1045.488281 -256.273438 1039.207031 -271.386719 C 1033.480469 -285.203125 1019.988281 -294.515625 1006.183594 -299.109375 C 988.589844 -304.964844 970.121094 -301.667969 952.683594 -296.816406 C 933.277344 -291.417969 914.207031 -283.917969 893.839844 -283.28125 C 876.078125 -282.722656 857.945312 -286.511719 842.496094 -295.488281 C 827.621094 -304.140625 816.128906 -317.441406 811.074219 -333.996094 C 806.414062 -349.253906 806.90625 -366.648438 814.40625 -380.945312 C 832.191406 -414.871094 876.480469 -412.246094 909.089844 -413.96875 C 950.304688 -416.148438 990.824219 -427.570312 1027 -447.480469 C 1041.886719 -455.675781 1059.773438 -466.238281 1062.949219 -484.515625 C 1065.867188 -501.316406 1055.871094 -517.792969 1042.28125 -526.949219 C 1032.632812 -533.441406 1021.398438 -536.839844 1009.871094 -538.773438 L 930.28125 -538.773438 C 928.816406 -538.574219 927.363281 -538.394531 925.902344 -538.171875 C 885.167969 -532.113281 845.90625 -518.261719 808.839844 -500.554688 C 771.714844 -482.816406 737.351562 -460.582031 703.046875 -438.023438 C 670.027344 -416.304688 636.332031 -394.425781 599.199219 -380.34375 C 581.390625 -373.589844 562.746094 -368.707031 543.730469 -367.140625 C 525.734375 -365.652344 505.847656 -366.136719 489 -373.34375 C 481.144531 -376.699219 473.898438 -381.894531 469.515625 -389.351562 C 464.410156 -398.070312 464.085938 -408.644531 465.972656 -418.339844 C 469.058594 -434.199219 477.109375 -449.3125 487.269531 -461.96875 C 491.941406 -464.484375 496.425781 -467.253906 500.636719 -470.21875 C 506.027344 -474.933594 511.863281 -478.871094 516.914062 -484.035156 C 521.988281 -489.242188 526.160156 -495.144531 530.617188 -500.878906 C 536.074219 -507.890625 539.292969 -519.503906 540.320312 -528.210938 C 540.734375 -531.742188 540.769531 -535.277344 540.457031 -538.773438 L 534.597656 -538.773438 C 538.140625 -505.328125 504.484375 -476.074219 476.792969 -463.34375 C 458.707031 -455.027344 437.882812 -450.980469 418.21875 -455.371094 C 401.105469 -459.183594 385.871094 -470.070312 376.816406 -485.117188 C 367.523438 -500.535156 366.878906 -518.027344 374.578125 -534.226562 C 375.304688 -535.769531 376.097656 -537.277344 376.902344 -538.773438 L 370.285156 -538.773438 C 364.316406 -526.488281 361.242188 -513.332031 364.519531 -499.394531 " fill-opacity="1" fill-rule="nonzero"/><path fill="#62d6da" d="M 1358.785156 191.246094 C 1357.230469 189.253906 1358.617188 178.960938 1361.59375 170.308594 C 1371.519531 141.5 1395.753906 109.476562 1409.191406 83.328125 C 1434.09375 34.8125 1434.285156 18.070312 1414.296875 -23.972656 C 1400.816406 -52.355469 1406.753906 -68.074219 1398.3125 -80.4375 C 1390.65625 -91.660156 1383.167969 -85.476562 1383.578125 -71.804688 C 1384.628906 -37.5 1400.75 -16.035156 1403.230469 15.417969 C 1406.214844 53.449219 1372.414062 107.742188 1363.101562 132.972656 C 1345.671875 180.210938 1300.46875 208.730469 1380.742188 219.394531 C 1404.003906 222.476562 1414.375 222.535156 1430.84375 218.21875 L 1430.84375 212.292969 C 1414.253906 216.832031 1407.402344 216.730469 1386.339844 214.386719 C 1329.699219 208.058594 1334.574219 196.945312 1353.453125 165.570312 C 1369.574219 138.785156 1364.363281 140.261719 1381.164062 106.679688 C 1391.179688 86.671875 1405.746094 53.15625 1408.316406 30.878906 C 1412.980469 -9.398438 1386.296875 -44.765625 1389.359375 -75.371094 C 1389.875 -80.480469 1390.867188 -80.996094 1393.496094 -77.484375 C 1395.941406 -74.210938 1397.441406 -68.140625 1399.417969 -53.472656 C 1404.820312 -13.566406 1432.957031 4.878906 1419.285156 46.039062 C 1402.460938 96.699219 1357.835938 144.808594 1352.941406 181.410156 C 1349.921875 204.011719 1364.453125 198.949219 1387.917969 192.800781 C 1410.507812 186.886719 1421.976562 186.496094 1430.84375 186.269531 L 1430.84375 180.613281 C 1421.886719 180.761719 1410.015625 180.925781 1383.5 188.082031 C 1369.449219 191.871094 1360.207031 193.054688 1358.785156 191.246094 " fill-opacity="1" fill-rule="nonzero"/></svg>